# xmcd
#
# Track frame offsets:
#	212
#	16332
#	32685
#	48152
#	63827
#	75600
#	88407
#	101415
#	116755
#	131635
#	144595
#	156662
#	184230
#	199552
#	213440
#
# Disc length: 3049 seconds
#
# Revision: 1
# Processed by: cddbd v1.4PL0 Copyright (c) Steve Scherf et al.
# Submitted via: audiograbber 1.80.04
#
DISCID=d10be70f
DTITLE=John Delafose and the Eunice Playboys - Blues Stay Away From Me
DYEAR=1993
DGENRE=Zydeco
TTITLE0=Old Time Two Step
TTITLE1=Let Me Take You In My Arrms Tonight
TTITLE2=Joe Simien Special
TTITLE3=Outside Woman
TTITLE4=Cherokee Waltz
TTITLE5=Baby Bye Bye
TTITLE6=Scott Playboy Special
TTITLE7=Slow Motion Zydeco
TTITLE8=Oh 'Tit Fille
TTITLE9=Blues Stay Away From Me
TTITLE10=Mamou Two Step
TTITLE11=I Can't Forget You (Mol j'peux pas t'oublier)
TTITLE12=Make Me Yours
TTITLE13=Don't You Leave Me
TTITLE14=Co-Fe
EXTD=
EXTT0=
EXTT1=
EXTT2=
EXTT3=
EXTT4=
EXTT5=
EXTT6=
EXTT7=
EXTT8=
EXTT9=
EXTT10=
EXTT11=
EXTT12=
EXTT13=
EXTT14=
PLAYORDER=
